<?xml version="1.0" standalone="no"?>
<!DOCTYPE svg PUBLIC "-//W3C//DTD SVG 20010904//EN"
 "http://www.w3.org/TR/2001/REC-SVG-20010904/DTD/svg10.dtd">
<svg version="1.0" xmlns="http://www.w3.org/2000/svg"
 width="93.000000pt" height="87.000000pt" viewBox="0 0 93.000000 87.000000"
 preserveAspectRatio="xMidYMid meet">

<g transform="translate(0.000000,87.000000) scale(0.100000,-0.100000)"
fill="#000000" stroke="none">
<path d="M343 855 c-133 -36 -249 -131 -306 -252 -30 -63 -32 -76 -32 -168 1
-91 4 -106 32 -167 166 -355 688 -355 856 -1 29 62 32 76 32 168 0 92 -3 106
-32 168 -95 201 -334 310 -550 252z m291 -104 c79 -39 141 -100 177 -176 48
-100 38 -238 -24 -328 l-19 -28 -39 35 c-147 134 -371 134 -526 1 l-42 -36
-15 23 c-65 99 -77 226 -31 325 45 100 147 186 252 213 21 5 75 8 121 6 68 -3
95 -9 146 -35z m-61 -494 c50 -17 127 -73 127 -92 0 -10 -26 -29 -67 -48 -100
-47 -236 -47 -335 0 -38 18 -68 36 -68 41 0 13 63 68 101 87 67 35 164 40 242
12z"/>
<path d="M395 696 c-56 -25 -88 -70 -93 -131 -4 -47 -1 -61 21 -94 64 -96 219
-97 285 0 20 28 23 44 20 92 -4 46 -10 63 -34 88 -52 56 -133 74 -199 45z
m130 -91 c30 -30 32 -64 4 -99 -16 -21 -29 -26 -64 -26 -35 0 -48 5 -64 26
-12 15 -21 38 -21 51 0 37 42 73 85 73 25 0 44 -8 60 -25z"/>
</g>
</svg>
