<svg width="40" height="41" viewBox="0 0 40 41" fill="none" xmlns="http://www.w3.org/2000/svg">
<path fill-rule="evenodd" clip-rule="evenodd" d="M27.2727 14.9091C27.2727 16.8862 26.5065 18.7823 25.1426 20.1803C23.7787 21.5783 21.9289 22.3637 20 22.3637C18.0712 22.3637 16.2213 21.5783 14.8574 20.1803C13.4935 18.7823 12.7273 16.8862 12.7273 14.9091C12.7273 12.9321 13.4935 11.036 14.8574 9.63798C16.2213 8.23998 18.0712 7.45459 20 7.45459C21.9289 7.45459 23.7787 8.23998 25.1426 9.63798C26.5065 11.036 27.2727 12.9321 27.2727 14.9091ZM23.6364 14.9091C23.6364 15.8977 23.2533 16.8457 22.5713 17.5447C21.8894 18.2437 20.9644 18.6364 20 18.6364C19.0356 18.6364 18.1107 18.2437 17.4287 17.5447C16.7468 16.8457 16.3637 15.8977 16.3637 14.9091C16.3637 13.9206 16.7468 12.9726 17.4287 12.2736C18.1107 11.5746 19.0356 11.1819 20 11.1819C20.9644 11.1819 21.8894 11.5746 22.5713 12.2736C23.2533 12.9726 23.6364 13.9206 23.6364 14.9091Z" fill="white"/>
<path fill-rule="evenodd" clip-rule="evenodd" d="M20 0C8.95455 0 0 9.17841 0 20.5C0 31.8216 8.95455 41 20 41C31.0455 41 40 31.8216 40 20.5C40 9.17841 31.0455 0 20 0ZM3.63636 20.5C3.63636 24.395 4.93273 27.9806 7.10545 30.8283C8.63133 28.7744 10.5998 27.1098 12.8572 25.9648C15.1145 24.8197 17.5995 24.225 20.1182 24.2273C22.6042 24.2249 25.058 24.8041 27.2926 25.9209C29.5272 27.0377 31.4836 28.6626 33.0127 30.6717C34.5881 28.5539 35.6488 26.082 36.1071 23.4606C36.5654 20.8391 36.4081 18.1435 35.6482 15.5967C34.8883 13.05 33.5477 10.7253 31.7372 8.81507C29.9268 6.90482 27.6986 5.46392 25.2371 4.61158C22.7755 3.75925 20.1513 3.51998 17.5816 3.91359C15.0119 4.30719 12.5705 5.32234 10.4596 6.87505C8.34863 8.42777 6.62875 10.4734 5.44223 12.8427C4.25572 15.212 3.63669 17.8368 3.63636 20.5ZM20 37.2727C16.2435 37.2785 12.6005 35.9539 9.68727 33.5231C10.8599 31.8025 12.4206 30.3976 14.2367 29.4281C16.0528 28.4586 18.0705 27.9531 20.1182 27.9545C22.1403 27.9529 24.1336 28.4457 25.9326 29.3922C27.7316 30.3386 29.2843 31.7114 30.4618 33.3964C27.526 35.9061 23.8229 37.2782 20 37.2727Z" fill="white"/>
</svg>
